<mxfile host="65bd71144e">
    <diagram id="a2qCymA8xY7LjtpiCSF-" name="PÃ¡gina-1">
        <mxGraphModel dx="1130" dy="792" grid="1" gridSize="10" guides="1" tooltips="1" connect="1" arrows="1" fold="1" page="1" pageScale="1" pageWidth="1169" pageHeight="827" math="0" shadow="0">
            <root>
                <mxCell id="0"/>
                <mxCell id="1" parent="0"/>
                <mxCell id="2" value="Customer" style="swimlane;fontStyle=0;childLayout=stackLayout;horizontal=1;startSize=26;fillColor=none;horizontalStack=0;resizeParent=1;resizeParentMax=0;resizeLast=0;collapsible=1;marginBottom=0;" parent="1" vertex="1">
                    <mxGeometry x="40" y="40" width="140" height="182" as="geometry"/>
                </mxCell>
                <mxCell id="3" value="_id: ObjectId" style="text;strokeColor=none;fillColor=none;align=left;verticalAlign=top;spacingLeft=4;spacingRight=4;overflow=hidden;rotatable=0;points=[[0,0.5],[1,0.5]];portConstraint=eastwest;" parent="2" vertex="1">
                    <mxGeometry y="26" width="140" height="26" as="geometry"/>
                </mxCell>
                <mxCell id="4" value="name: String" style="text;strokeColor=none;fillColor=none;align=left;verticalAlign=top;spacingLeft=4;spacingRight=4;overflow=hidden;rotatable=0;points=[[0,0.5],[1,0.5]];portConstraint=eastwest;" parent="2" vertex="1">
                    <mxGeometry y="52" width="140" height="26" as="geometry"/>
                </mxCell>
                <mxCell id="5" value="phone: String" style="text;strokeColor=none;fillColor=none;align=left;verticalAlign=top;spacingLeft=4;spacingRight=4;overflow=hidden;rotatable=0;points=[[0,0.5],[1,0.5]];portConstraint=eastwest;" parent="2" vertex="1">
                    <mxGeometry y="78" width="140" height="26" as="geometry"/>
                </mxCell>
                <mxCell id="6" value="id_document: String" style="text;strokeColor=none;fillColor=none;align=left;verticalAlign=top;spacingLeft=4;spacingRight=4;overflow=hidden;rotatable=0;points=[[0,0.5],[1,0.5]];portConstraint=eastwest;" parent="2" vertex="1">
                    <mxGeometry y="104" width="140" height="26" as="geometry"/>
                </mxCell>
                <mxCell id="7" value="address: String" style="text;strokeColor=none;fillColor=none;align=left;verticalAlign=top;spacingLeft=4;spacingRight=4;overflow=hidden;rotatable=0;points=[[0,0.5],[1,0.5]];portConstraint=eastwest;" parent="2" vertex="1">
                    <mxGeometry y="130" width="140" height="26" as="geometry"/>
                </mxCell>
                <mxCell id="60" value="email: String" style="text;strokeColor=none;fillColor=none;align=left;verticalAlign=top;spacingLeft=4;spacingRight=4;overflow=hidden;rotatable=0;points=[[0,0.5],[1,0.5]];portConstraint=eastwest;" vertex="1" parent="2">
                    <mxGeometry y="156" width="140" height="26" as="geometry"/>
                </mxCell>
                <mxCell id="12" value="Sale" style="swimlane;fontStyle=0;childLayout=stackLayout;horizontal=1;startSize=26;fillColor=none;horizontalStack=0;resizeParent=1;resizeParentMax=0;resizeLast=0;collapsible=1;marginBottom=0;" parent="1" vertex="1">
                    <mxGeometry x="320" y="40" width="140" height="130" as="geometry"/>
                </mxCell>
                <mxCell id="13" value="_id: ObjectId" style="text;strokeColor=none;fillColor=none;align=left;verticalAlign=top;spacingLeft=4;spacingRight=4;overflow=hidden;rotatable=0;points=[[0,0.5],[1,0.5]];portConstraint=eastwest;" parent="12" vertex="1">
                    <mxGeometry y="26" width="140" height="26" as="geometry"/>
                </mxCell>
                <mxCell id="14" value="datetime: DateTime" style="text;strokeColor=none;fillColor=none;align=left;verticalAlign=top;spacingLeft=4;spacingRight=4;overflow=hidden;rotatable=0;points=[[0,0.5],[1,0.5]];portConstraint=eastwest;" parent="12" vertex="1">
                    <mxGeometry y="52" width="140" height="26" as="geometry"/>
                </mxCell>
                <mxCell id="15" value="number: Number" style="text;strokeColor=none;fillColor=none;align=left;verticalAlign=top;spacingLeft=4;spacingRight=4;overflow=hidden;rotatable=0;points=[[0,0.5],[1,0.5]];portConstraint=eastwest;" parent="12" vertex="1">
                    <mxGeometry y="78" width="140" height="26" as="geometry"/>
                </mxCell>
                <mxCell id="40" value="customer_id: ObjectId" style="text;strokeColor=none;fillColor=none;align=left;verticalAlign=top;spacingLeft=4;spacingRight=4;overflow=hidden;rotatable=0;points=[[0,0.5],[1,0.5]];portConstraint=eastwest;" parent="12" vertex="1">
                    <mxGeometry y="104" width="140" height="26" as="geometry"/>
                </mxCell>
                <mxCell id="16" value="n" style="endArrow=open;html=1;endSize=12;startArrow=diamondThin;startSize=14;startFill=1;edgeStyle=orthogonalEdgeStyle;align=left;verticalAlign=bottom;entryX=0.995;entryY=0.102;entryDx=0;entryDy=0;entryPerimeter=0;" parent="1" target="2" edge="1">
                    <mxGeometry x="-0.7561" y="-3" relative="1" as="geometry">
                        <mxPoint x="320" y="56" as="sourcePoint"/>
                        <mxPoint x="210" y="170" as="targetPoint"/>
                        <mxPoint as="offset"/>
                    </mxGeometry>
                </mxCell>
                <mxCell id="18" value="Product" style="swimlane;fontStyle=0;childLayout=stackLayout;horizontal=1;startSize=26;fillColor=none;horizontalStack=0;resizeParent=1;resizeParentMax=0;resizeLast=0;collapsible=1;marginBottom=0;" parent="1" vertex="1">
                    <mxGeometry x="600" y="240" width="140" height="156" as="geometry"/>
                </mxCell>
                <mxCell id="19" value="_id: ObjectId" style="text;strokeColor=none;fillColor=none;align=left;verticalAlign=top;spacingLeft=4;spacingRight=4;overflow=hidden;rotatable=0;points=[[0,0.5],[1,0.5]];portConstraint=eastwest;" parent="18" vertex="1">
                    <mxGeometry y="26" width="140" height="26" as="geometry"/>
                </mxCell>
                <mxCell id="20" value="description: String" style="text;strokeColor=none;fillColor=none;align=left;verticalAlign=top;spacingLeft=4;spacingRight=4;overflow=hidden;rotatable=0;points=[[0,0.5],[1,0.5]];portConstraint=eastwest;" parent="18" vertex="1">
                    <mxGeometry y="52" width="140" height="26" as="geometry"/>
                </mxCell>
                <mxCell id="21" value="unit: String" style="text;strokeColor=none;fillColor=none;align=left;verticalAlign=top;spacingLeft=4;spacingRight=4;overflow=hidden;rotatable=0;points=[[0,0.5],[1,0.5]];portConstraint=eastwest;" parent="18" vertex="1">
                    <mxGeometry y="78" width="140" height="26" as="geometry"/>
                </mxCell>
                <mxCell id="22" value="price: Number" style="text;strokeColor=none;fillColor=none;align=left;verticalAlign=top;spacingLeft=4;spacingRight=4;overflow=hidden;rotatable=0;points=[[0,0.5],[1,0.5]];portConstraint=eastwest;" parent="18" vertex="1">
                    <mxGeometry y="104" width="140" height="26" as="geometry"/>
                </mxCell>
                <mxCell id="42" value="supplier_id: ObjectId" style="text;strokeColor=none;fillColor=none;align=left;verticalAlign=top;spacingLeft=4;spacingRight=4;overflow=hidden;rotatable=0;points=[[0,0.5],[1,0.5]];portConstraint=eastwest;" parent="18" vertex="1">
                    <mxGeometry y="130" width="140" height="26" as="geometry"/>
                </mxCell>
                <mxCell id="23" value="SaleItem" style="swimlane;fontStyle=0;childLayout=stackLayout;horizontal=1;startSize=26;fillColor=none;horizontalStack=0;resizeParent=1;resizeParentMax=0;resizeLast=0;collapsible=1;marginBottom=0;" parent="1" vertex="1">
                    <mxGeometry x="320" y="240" width="140" height="104" as="geometry"/>
                </mxCell>
                <mxCell id="25" value="order: Number" style="text;strokeColor=none;fillColor=none;align=left;verticalAlign=top;spacingLeft=4;spacingRight=4;overflow=hidden;rotatable=0;points=[[0,0.5],[1,0.5]];portConstraint=eastwest;" parent="23" vertex="1">
                    <mxGeometry y="26" width="140" height="26" as="geometry"/>
                </mxCell>
                <mxCell id="26" value="quantity: Number" style="text;strokeColor=none;fillColor=none;align=left;verticalAlign=top;spacingLeft=4;spacingRight=4;overflow=hidden;rotatable=0;points=[[0,0.5],[1,0.5]];portConstraint=eastwest;" parent="23" vertex="1">
                    <mxGeometry y="52" width="140" height="26" as="geometry"/>
                </mxCell>
                <mxCell id="41" value="product_id: ObjectId" style="text;strokeColor=none;fillColor=none;align=left;verticalAlign=top;spacingLeft=4;spacingRight=4;overflow=hidden;rotatable=0;points=[[0,0.5],[1,0.5]];portConstraint=eastwest;" parent="23" vertex="1">
                    <mxGeometry y="78" width="140" height="26" as="geometry"/>
                </mxCell>
                <mxCell id="27" value="n" style="endArrow=open;html=1;endSize=12;startArrow=diamondThin;startSize=14;startFill=1;align=left;verticalAlign=bottom;exitX=0.5;exitY=0;exitDx=0;exitDy=0;" parent="1" source="23" edge="1">
                    <mxGeometry x="-1" y="-10" relative="1" as="geometry">
                        <mxPoint x="270" y="200" as="sourcePoint"/>
                        <mxPoint x="390" y="170" as="targetPoint"/>
                        <mxPoint as="offset"/>
                    </mxGeometry>
                </mxCell>
                <mxCell id="28" value="n" style="endArrow=open;html=1;endSize=12;startArrow=diamondThin;startSize=14;startFill=1;edgeStyle=orthogonalEdgeStyle;align=left;verticalAlign=bottom;" parent="1" edge="1">
                    <mxGeometry x="-0.925" y="5" relative="1" as="geometry">
                        <mxPoint x="460" y="260" as="sourcePoint"/>
                        <mxPoint x="600" y="260" as="targetPoint"/>
                        <mxPoint as="offset"/>
                    </mxGeometry>
                </mxCell>
                <mxCell id="29" value="Supplier" style="swimlane;fontStyle=0;childLayout=stackLayout;horizontal=1;startSize=26;fillColor=none;horizontalStack=0;resizeParent=1;resizeParentMax=0;resizeLast=0;collapsible=1;marginBottom=0;" parent="1" vertex="1">
                    <mxGeometry x="320" y="440" width="140" height="182" as="geometry"/>
                </mxCell>
                <mxCell id="30" value="_id: ObjectId" style="text;strokeColor=none;fillColor=none;align=left;verticalAlign=top;spacingLeft=4;spacingRight=4;overflow=hidden;rotatable=0;points=[[0,0.5],[1,0.5]];portConstraint=eastwest;" parent="29" vertex="1">
                    <mxGeometry y="26" width="140" height="26" as="geometry"/>
                </mxCell>
                <mxCell id="31" value="name: String" style="text;strokeColor=none;fillColor=none;align=left;verticalAlign=top;spacingLeft=4;spacingRight=4;overflow=hidden;rotatable=0;points=[[0,0.5],[1,0.5]];portConstraint=eastwest;" parent="29" vertex="1">
                    <mxGeometry y="52" width="140" height="26" as="geometry"/>
                </mxCell>
                <mxCell id="32" value="address: String&#10;" style="text;strokeColor=none;fillColor=none;align=left;verticalAlign=top;spacingLeft=4;spacingRight=4;overflow=hidden;rotatable=0;points=[[0,0.5],[1,0.5]];portConstraint=eastwest;" parent="29" vertex="1">
                    <mxGeometry y="78" width="140" height="26" as="geometry"/>
                </mxCell>
                <mxCell id="33" value="phone: String" style="text;strokeColor=none;fillColor=none;align=left;verticalAlign=top;spacingLeft=4;spacingRight=4;overflow=hidden;rotatable=0;points=[[0,0.5],[1,0.5]];portConstraint=eastwest;" parent="29" vertex="1">
                    <mxGeometry y="104" width="140" height="26" as="geometry"/>
                </mxCell>
                <mxCell id="34" value="country: String" style="text;strokeColor=none;fillColor=none;align=left;verticalAlign=top;spacingLeft=4;spacingRight=4;overflow=hidden;rotatable=0;points=[[0,0.5],[1,0.5]];portConstraint=eastwest;" parent="29" vertex="1">
                    <mxGeometry y="130" width="140" height="26" as="geometry"/>
                </mxCell>
                <mxCell id="61" value="email: String" style="text;strokeColor=none;fillColor=none;align=left;verticalAlign=top;spacingLeft=4;spacingRight=4;overflow=hidden;rotatable=0;points=[[0,0.5],[1,0.5]];portConstraint=eastwest;" vertex="1" parent="29">
                    <mxGeometry y="156" width="140" height="26" as="geometry"/>
                </mxCell>
                <mxCell id="35" value="n" style="endArrow=open;html=1;endSize=12;startArrow=diamondThin;startSize=14;startFill=1;align=left;verticalAlign=bottom;exitX=0.512;exitY=1.026;exitDx=0;exitDy=0;exitPerimeter=0;entryX=1;entryY=0.5;entryDx=0;entryDy=0;" parent="1" source="42" target="32" edge="1">
                    <mxGeometry x="-0.8648" y="8" relative="1" as="geometry">
                        <mxPoint x="660" y="220" as="sourcePoint"/>
                        <mxPoint x="670" y="200" as="targetPoint"/>
                        <mxPoint as="offset"/>
                        <Array as="points">
                            <mxPoint x="672" y="530"/>
                        </Array>
                    </mxGeometry>
                </mxCell>
                <mxCell id="39" value="" style="shape=stencil(lZ3Z0htHcoWfhreI2pfrsec9FCFqpBhZVFAcL2/vKsvAD5zT+Eq8E6lMsLs6K5eT26f8tz9+/uH3z59S+OPb1y///Pxfv/z47edP+d8+pfTLbz9//vrLt/Vfn/K/f8p/++nL18//+PrlX7/9+Oeff/9hU+7/+o8v/7l/4b//5IvzluvmSuF//vybcGvl//7i73/S//rLb8/04zam0M+E9Dm80MdbbkDfb7MKPT5Pv9Uk9P//A+/o4+vzpFvqQN9urQl9o/dttziEfk6gr7eWX+jzLQ+kD13oOz1/udXX3y+3SOeT74/7QV/pffOtFKGfGejTbbyeT70L4Dv6NIW+0/nEW48v9O2WItKnJPSNnj/c+qt89lug5w+3HIW+gDzM21RyOs55q6+nP/A0pwrnQOEZ+jCLH8lFlOetBSLPcnPDLYBqGLeQlZ5Es+uXWt86wPN0leRFX+B5uh7mop+gqtptiiZMtwIfawliVPoJx99Uk++7CVelqSbcdx9+v97Gq+ZZuoXOp9rzL9WA9FnOs+L51FssSk93pZhlaWiKyq0npR/4+1Xet9911xt6lf8lsSA/S3EL/cDrmO/S+ERf4XmWIXm1dMs3CKA6s33feStIX6rSD7i/yxC+3vflaiS4v1k1+aKveD4xKj3d33w/jQf9cmWAPt0doyd60rbLMr5+r+2agLylu7Q80ZP8LMfl9fz3iYH8p1ttSk/fK6n+XBJLpi6pZ7hudIL7nu6Oy4O+3QK5VurJbA1MrsP96zzoO+qreKvyPOPw+/n1fDLbu3iL4hk+/uaSPty134M+3TXkG3p537wkHJ7/ERg80ZPrH9Q3yeUuge/oX+UhL3nA53H6ge8r+jm3uwZ+R5+Unu5v0PuSHx7Cu/NMSk/6atG/ynNeHhE+fx9KT/cxaGS36DF0uf/rD/p5P+F38vwqbyWw66z6f9FXvF/l9X1LvFvMN/RivxZ9w/so/kBZ9wvpRZ8v+kahmt7fkvH+JrVH5WGR39HL+RfUn0n9jUVf0V7EV/kvK1bF5xd7vegr2rsk37ehf5LUH170Be1vSUpP+j/db9ODvqM/bPa0cGyXNJwq425h3/kDQenJnzH/ocyDve4SiQe0F8ufiUrf0b6P1/Op8fC9xL+qD4l6Ry/IQ8Z4MN+l94m+w/c1f7Ky/7Po5Tzryb81+oH+bRb6dreYb+jFntaO+sH8/0VP+m2d3qs813FL6G+PqvQcL+j3nXhfisa/jeW53L/OE32H5ylqvxrHC0X950VP8Xi5ewsP+oTxXdHzbxnPv2i8v+gn6Nuq/kBje1EVP2kVobpq58nyX+/a40HfEC8yvKJ1tO9V4+VFT/JZVV+1ccBnwuv9bROh26b2cdETXtHUX+qMpzVDPiPGjw9g9EH/8EDe0Iu+WvRkH7v6tz3j+w71P3u5W8w39FV+v6J/PlX+e0N/YNr59wN4K/hVH3cL8g56FoemHwLUYODzRA23AdJXlTjC/SO+Y5B/YUSOgQ1UWAz00eLDpj8Y0l1vvGOQMH4xYAapKA4xHj/xjkEcp1EwMPzAPZ8YBkVWpioGQ6eLQbIko3Es1hWsXAwUzO88njB09M42OBmUgdzFjU6+2oMxED+KUwGAxdBIWqdGZGNyxGTJnsVA32HH6MYwiCFqEDcDg4R2RRcDeQk7zM3KgGFE0u8wI6ZUk6X0FgMlinbkVJRhMoPcuJlQVW7fuioDpQG38/uqvGdG45ZMa0zOzmx3zRjI/dr+lHzpwvhB1QB2MVBCZHswTRnww5mLsRgIots+g4h35RizKygzOZ+chhqUWRk1mXcn+YmBhC8/oogHQ0N1n83sLgYKXHLUyH0xkCLLSV2ZxUDQbV6yKXe6oyzlYheoI7iaq5qsxUDoYa6aPl0MjY612Sl11K2534X5wTA4ATbsAh0yctOU8eCQMNwv5BMDnVKJFwwUlJd0wYBZznzBQF5lKYrDzXnXVNcMVRMli4FsXGkaGS4GPNaudnoeoIKhsdVioFipTLsPE81ufZjxJwayQDWaFZ34pWu6Z2efGeDD1ayA5WaggLjc499nBjil2jTFtU+JUv5dY/r94eilh4JIc6J9aEFRnoPwNUs7LAYyWc1w132B6F/IZnbH3b+5ZqiK3G8lAN+hNRO+gaFr63YfBtY6tHF3CZ9VJSiBNjU7vLQ3uT89aISyGChS7JaPnVya1ZMWqCwGCjh6thvX0aD0YrLUMAbaiIR5AmQfetOk42LAd+jm6FbMCvZh4l3vQc41w7SAo969j2tcJlw8EgFjIypSOgsihyOZnS6ol0a+I5fPvjec0groBSxa3v0gMKoo2rUYMr1D1cLPmdDnWwG9GsWE9TwrPldHN95TOO8YJMMzI2qN4RWFAU3WmHanA0bs+38L6sBJsP0AhjoMeKT9ioY6EGw6rQ5lnRtBLdMKafaXAVmalpkbXAkxLTxe0kWewGKQXORiwEcqhmBxLDoftYdPKFynStlix5qxPGBHngYMkm5dDEkeiWvRt54zcJNu3A5VX7XG0oV047bqrcpA2My0KKuzz7fMh6LeD1zuHYOUbS6LgV/anJNtk+iKWjjQufBrh9vGQD7fNrKvX7pXjB8+4vMHQ0FnfT5KTR8MGU3WDuinMhCyPruWa3TuhNgBvXy4iAjWR0D/YAgsS11PaWewSGt0LbFpA53E7UNOZaAale2lelKQXnqotG7nml56aHi83PdMLz30WFu5W+53DNLC0jLfuKG+xopZKMraAYykxiOWau0QyXLpeB+mRop1omc8LQDfoSC9tLkOK9ik9PtmmMpAOZQPjOHB0DAGmpYhrBUz0tMyHLWgd/8Rbj8YMmbLNsOrFa2JNZ8zRKwK2Azy0gHjOGco817J+NcZIl0gZ2DY7oKhf+dLl4YZvwsGDssuGQjRvWAo6KxfMOSjaAhDOmkNZYgnJaAM3K14yUBgjjNkhh4vGAZ7987Q2aucF3XIJyUghePtDiu8ZfDKaz5WcdZzZd97qkeWyz0k/4vKOOfTsWo1fsK0zjYoXRkOyji9esY5Iq6xbZycEheYbStqDFQRPq2hb2e3Dp6A9OAMxL23cyIMnRXZUBg7db5xQwOO1Nhkdc2xp4pQ/HZ0pRGknNxQqRRNhb9D06xl4lK8HaFIr0zi79A0kXpoPppWzbZLDQ7Bq7S/BP4OVTPgcfIVtQLEQ0PaLKr54sFOW9YyHkLLrFUt8RBaWnVRbNjUshikSi1WhB6n1TpEzrFvVC8rAypjaxyIB8MerfM2YU5xMWhr4CEWtV6S3ffNsJ1+OJ5DMA1k3tVx9EjB2oe50GYx6DtwKc8uDRIYG/PZw5x7zpUteilIn9yPPayuDSspxtDM8UADuuFiKZDEyzlMb3dUqsMwlsYQvBfYYrHjqKrlK/aTLHqNcdEdHkWTP5XfN1uDEYIlO6khDUP8fZOGeoxLjKjp4oLqfQQFbzImlha9FESx2uo2HSFjNUcfWhnEHmTvep5cY9ab5hsTyttOBuqoEuon6UXTAAktfi/WcI/BVHfbh67gBixFRyOi360BK6I/0ePFaJlDglhH11BY1K2hk/HRDW7qeVKM06zgNaLDtXPu+vzk7DfTnxHlZ7dT6POQPm/1DvE90YP8NJPPiLm8XSeh70v2q13IG8l/S4oFR8SOW7QBIUwfNH8UMZNSpw3MYHpraODnqWZ/+XwWfVJ5oPOvTVOpEUtoa9OG14iRYq02EAXlpxa/v/j7WWHyw/Pb6KPD+VhD8OH8Hw7qX6Z3+aciuGlxANMPG1jC9F39zwN9U3vK8l+sgexAX77vfhUr9znQeyDG9NEGzDB90IEfTJ+n+mNH+mD6lmqEL+wR0vtAJpTnXfD7PfclG0bC9zFXBWH4vmdruGR9suiDyRvRZ00PsX77ADif7C8VsictCDrQR03fRkyrZOtlOdB7hI306UKeD/Qmn0g/bAAS+jN7gNn3+D/J6tF5/svFQDLu/2g28AnL6Lz9g/29VDVejhhPpQv7S6n2lA0f5N/PHr/g+SctNo6I6vrAD042bfc9Cj3OVwr6voHnPQVNcXAiNVr+IWDJSbSG1+MoUHt+HBU5FD8JGF9/jDd7en4eZVqUnuY7RGsdCtwCOdS+B4wfN72eT+HzrPq9sNN1KKQZMB6MQ/VnOHVwTn1+pJ/qHx6exzqxDu87tSI8YP5t0+t54ve6oEd5sJL2g7yZPTrIs/nnx/sy9XxO99F+n7qSrXr3oE+GDtwKiOnv+2Kjiw/0dh/5eez3qSni6vlx1PHF+SRqC/9O+hQ0Jx6wBvfDXX6i517kqvKA/kDSNCnXovrAwoAV78nw6sAdtpbM4/vu/kngeVjm/7C8uX916NQ2/y1wN675h4E7X83/DNhF5P7tkb6p/4M91xf68EBv9ovoPb7gUegevxzpm95HpLf460g/7Xwo/rX48UBv8SmX83r8yzWeHl8f6C1+5+YQxwfYXjj+wP6z4xsB81OOnxzpTZ6J3vGfA73hSwd6w68O9IaPHegNfzvQG753oDf88EBv+OSB3vDPA/2F/0b0jt+yfDo+fKA3/Jnvi+PbB3rDz/m+Oz7P+sfx/wO95ReO9OaP4fNbfoT1ledfDt/L8jsH+bH8EdN7fupAb/mvA73l1w70lr/jcsl24e9RfnnnH02fUH6wun2nVRXNuogC1p+07vqT4sE2tLotYKdim9qDx/Fgs10VAWvhug0wZvx/59+/B9/uSeMXxjMXveG3VH/VL/BDwh+6zQiKXH9SPJ9F9T+9eH4Q6yVMPnmKUm8azyY+/67z5hJ2le6+Pyn9xXinW8l24nbjYBXbiJ+PqPY9Yz3GsMFXmecJWtttxpaNPVZO67US95RLpzFPZxrFBlTjoK9hFb/cqDbMP698PmZPG+Lze6CcNJHh/Og9T0764FBfDVtQ03kugeGlHe/XmIoP8PKeRa9N1VyWHmyYFuKxu4JVph5g/D5dnx/aD4IVYAXud/YKmsDdBG4yIs6U/Zg898SARelRZxjEhFZm2tqKxUBuza7Pln8hc3d+sjwnF1LuGvOhDNhokhXpizyiY9fJW9k7NssUyzU3HqtQrLihc/NYsezl4CbvauZ4cIeQ1V9Gnma0GGQ4UeIK8Nk0Q5cC94I1TSntmsdD37nUhCZMQu02cmn4yXwfuvWN8BqR3b9j7TjYEGo92x+TDt8xCJCReCjObouSdpzDxI2hu5gS73qa05bd8ESm3c8m73DQ9tZcvAcMH1odxT06NubKFc2H8RbTNpzwBpvFIBZ9MRxaf9UFy4ipzqlXNBcswt4MUkReT83FEpXuZsoDgzwS+z1z6mD8zI0RMdhUnEPP6RUHt7VecXDn7AXHoTn3mgNLFC44uMX4ioO7mK84uDHhioNDgSsObve+5sD1Pxcc3LR+xcF98Vcc3NJ3xcHd/dccpEUuOA4zCq44jmMQpNml8rbIzSDRVj51ootN2sMiDo8k71Cx4GrrQtno0k66UDzZ2rHE0g1AHWyIp/Yg1HEcFiFB70RUz1vX29FMSpjZIuZlp+VB9+IP/hckcdcyG7GhyFIrvJrAJ8ZUbgYe6hvsMTn8SAKG7BmU3FguaOke9cP/gsDbe5gQv7TOBprcedv1WDsj3NNW2PbIpr7bzgrG4KZhyj3zFe0KKnceS74DhFfx3ms3iKGpu7KHa/H4LlEz/TByyQonej/16zdjwIC52XcYPL/CArXOU2Snbfs97OrYY9Rev8M49OsbfDd4EcAOZwXPiqyXqgLkI/E0Ll+MwdvYZ9Ue63EYtGCY6GLAsVFFP9zgrV970qEwHAbxZBv6Vxn3M3hn8OK7vetAGrM7G3ZbDbh7tbnBX6CRMdibCYrWjMmeQND49wMufYemigWagduVLYafXF+5GHTlQ8ShHd7APjnjsr6rhOQzYdS1W9KFgXuc99jOrAxURDV8EUDBDzd81UDhMQXJXpoHXgzfaMJj1PZQTZ9ITJlEC/pnRWXchzHwLsveFbiY7C9129a1bRKPkhYlMDma68XWJXTsn9r94DZwm25cT1qQtP0b7vAW6HxPiKQUZzDh45UP7WqDA7mhy4fUOz0QBPMu7O0rcxu2zm0eOOqnVRtxz4tCl/OvSoA3OKx4ZPgQfSqdsF3ac3IvfLjar0DNzEO3G5/WJdj00smB345t7ZFwP6H5GnNiwUW1NMxkyLbaHPMnIOKaI9qc/okoUL3al0BR096MYedKAUSxiaqTw6zSNZCbPCvUCwEPiy6KpYYO0rfhOlsSQVqg5AsG0vclXTwS5WGKf+nDHhcrp5iHfazTNpQMLhi2gpDJGzJzv1jAg1uHrMRg8gyi7A4TA0zZ0oyTXeNcbFlH5zJv2wM8ee90tjrdw96KbN765Pg4B/OwGurK5A4Tj5xMU2szJ89RS1aMvT0s7p6V6qXJYZbvQ/1IAL9jELxo7yqDY03VrGLl/YO2gve0b63YYrDDRjerMTrtjLMtznszBm/W05fOWAmw93T7Zj3qa0mKAc+Emu9jjtITA24mj6YEeFbortyTDxf5w0UdwToZGdy1jbZDkab7JJuYN7nc9KP76IkBT8kNCi/riJaAGLzBKk6NOPaCEMoFWQv04JqPaJUAB2Aj2hbicUitdg13R+e2YMNP96A7SpnZnLHB5Q/RZoXudSD0L1TVfBtXoO/g2z0K9v7FbCtNMhZYLAa504OrQ2O6v+IT9kjrQGKylSaR+1+jSWvkBuqo6n4cOpaDJlH6RHRzF/QVZcBZoaq8d5Evgf16Rr0z+KNY6C5SRvpouQTSGFZr1Hn0b9er0zPXzF9t6YDzbCp0nQ1Ju9jRgevuFIzu3HNadYRDm6gfbeRbmwiXVDVrbaBZs1WRrXPMbalT3kptO4Aay1vRlohWUR6KlSRX7Ikuagwaz+QsmjD5WCb4hl5GFOxMMXxfGwnZElqCom78osfIQlGbFjFzne08ecZCtjR0QCtgJfl1Yoor246QgfKZFbqovFcxq79SOTGZdWJ87eyNW1HJIU6zig9elpysfqPyOnMFqWvBlIrlCj6aDt/RJ6XHqNFWuiR0nWzbbuUUqa1K34VG5FNrknfR4wwrvb+F99qaT1MGwoNJPZQyMDsaNcdWOoZmUe1R4S3SUYHpwhs5LXVUGp5PVHu36CknYu0HpfJMEnURFz1l16ylu3B8HzWbXXg2fFTQpGSE+KJWLZSMUaiBlCWxW6/6cOOi5NWrfS/cQxdshDb3lwT1Jwv3/FoMveipOMDyV5nXTAe175nT6sFGYg/MwAXVD4ue5N/ii72EHc/TC5Npz6rTN/QHrKU+N4xfgsrPLt5G+ZFKvMz+XlBwOBcseAkKz2UGz2xE3KKnCpxgm38SZgKtRSzzTMugCM/eaIP6WVs9eJe2jdw79OiZ/twRHP6++Cc7wkJ9JXWTHxHKO/sl9IXhJu0VSCf/R/zzlFG/JZXnD3D1nb/RlB5nNmrub58Y+ktSS/uBe77z3+T3A97fpPjG1sDo74k/kALqW2/l4yx1UjwhTkyLWLwQeStiVv3wMQTxXXxk9HR/sy4Ljx39E+8r7Ggfi+1YaWh/iyXMG+IDxUYIVPTPi2ZDFj3Zl6r2NDIe5SPPC6aYqo2Ez5jTrVoZFXlfZLPnT1hU1GwFQUJ5Nnws8pqrdrEGiOxv13gq8oxWKxqJAZswuhXK8EgDyyDyhAKV5oErjGzeKvt6ht2OAzQs/Yady8BtETUPBw0aWZ96kWx18B3KfYe1a+TOaRsbnlRP2QLxrA6BnWU9C6dgskUWaNhj0b7ejIZx0Yvnk9kxqT5sg4ZNxmott9xf6K3SeNG3XdBh2zjctPsyFgzcL4bZ4/NYwScP14nDhzdjoDx8+N9hOLFY3uOwXhvOhIH4xfAhlM+plv1Ib8ODybDH6cMXsWd2quXi4aaLvuj5kKGOtkKVh6HGeTFMms/f6TkXb8MRD8OSfbgjDyP34W2H82f69R+///Dt5z//8NMvv/76x7evX/75+fn///Tl6+d/fP3yr99+fPzVHz//8Pvn9af/BQ==);lineShape=1;" parent="1" vertex="1">
                    <mxGeometry x="251.04321627603213" y="13.268505797204853" width="278.1725178621879" height="369.16279243733356" as="geometry"/>
                </mxCell>
                <mxCell id="43" value="Address" style="swimlane;fontStyle=0;childLayout=stackLayout;horizontal=1;startSize=26;fillColor=none;horizontalStack=0;resizeParent=1;resizeParentMax=0;resizeLast=0;collapsible=1;marginBottom=0;" vertex="1" parent="1">
                    <mxGeometry x="40" y="400" width="140" height="208" as="geometry"/>
                </mxCell>
                <mxCell id="44" value="street: String" style="text;strokeColor=none;fillColor=none;align=left;verticalAlign=top;spacingLeft=4;spacingRight=4;overflow=hidden;rotatable=0;points=[[0,0.5],[1,0.5]];portConstraint=eastwest;" vertex="1" parent="43">
                    <mxGeometry y="26" width="140" height="26" as="geometry"/>
                </mxCell>
                <mxCell id="45" value="number: String" style="text;strokeColor=none;fillColor=none;align=left;verticalAlign=top;spacingLeft=4;spacingRight=4;overflow=hidden;rotatable=0;points=[[0,0.5],[1,0.5]];portConstraint=eastwest;" vertex="1" parent="43">
                    <mxGeometry y="52" width="140" height="26" as="geometry"/>
                </mxCell>
                <mxCell id="46" value="complement: String" style="text;strokeColor=none;fillColor=none;align=left;verticalAlign=top;spacingLeft=4;spacingRight=4;overflow=hidden;rotatable=0;points=[[0,0.5],[1,0.5]];portConstraint=eastwest;" vertex="1" parent="43">
                    <mxGeometry y="78" width="140" height="26" as="geometry"/>
                </mxCell>
                <mxCell id="47" value="district: String" style="text;strokeColor=none;fillColor=none;align=left;verticalAlign=top;spacingLeft=4;spacingRight=4;overflow=hidden;rotatable=0;points=[[0,0.5],[1,0.5]];portConstraint=eastwest;" vertex="1" parent="43">
                    <mxGeometry y="104" width="140" height="26" as="geometry"/>
                </mxCell>
                <mxCell id="48" value="city: String" style="text;strokeColor=none;fillColor=none;align=left;verticalAlign=top;spacingLeft=4;spacingRight=4;overflow=hidden;rotatable=0;points=[[0,0.5],[1,0.5]];portConstraint=eastwest;" vertex="1" parent="43">
                    <mxGeometry y="130" width="140" height="26" as="geometry"/>
                </mxCell>
                <mxCell id="49" value="state: String" style="text;strokeColor=none;fillColor=none;align=left;verticalAlign=top;spacingLeft=4;spacingRight=4;overflow=hidden;rotatable=0;points=[[0,0.5],[1,0.5]];portConstraint=eastwest;" vertex="1" parent="43">
                    <mxGeometry y="156" width="140" height="26" as="geometry"/>
                </mxCell>
                <mxCell id="50" value="zip_code: String" style="text;strokeColor=none;fillColor=none;align=left;verticalAlign=top;spacingLeft=4;spacingRight=4;overflow=hidden;rotatable=0;points=[[0,0.5],[1,0.5]];portConstraint=eastwest;" vertex="1" parent="43">
                    <mxGeometry y="182" width="140" height="26" as="geometry"/>
                </mxCell>
                <mxCell id="52" value="n" style="endArrow=open;html=1;endSize=12;startArrow=diamondThin;startSize=14;startFill=1;align=left;verticalAlign=bottom;exitX=1;exitY=0.5;exitDx=0;exitDy=0;entryX=-0.018;entryY=0.949;entryDx=0;entryDy=0;entryPerimeter=0;" edge="1" parent="1" source="47" target="31">
                    <mxGeometry x="-0.8648" y="8" relative="1" as="geometry">
                        <mxPoint x="251.68000000000006" y="569.9959999999999" as="sourcePoint"/>
                        <mxPoint x="40" y="704.3199999999999" as="targetPoint"/>
                        <mxPoint as="offset"/>
                        <Array as="points"/>
                    </mxGeometry>
                </mxCell>
                <mxCell id="53" value="n" style="endArrow=open;html=1;endSize=12;startArrow=diamondThin;startSize=14;startFill=1;align=left;verticalAlign=bottom;exitX=0.5;exitY=0;exitDx=0;exitDy=0;entryX=0.5;entryY=1.038;entryDx=0;entryDy=0;entryPerimeter=0;" edge="1" parent="1" source="43" target="60">
                    <mxGeometry x="-0.902" y="20" relative="1" as="geometry">
                        <mxPoint x="100" y="280.33000000000004" as="sourcePoint"/>
                        <mxPoint x="110" y="230" as="targetPoint"/>
                        <mxPoint as="offset"/>
                        <Array as="points"/>
                    </mxGeometry>
                </mxCell>
                <mxCell id="58" value="" style="shape=stencil(lZ3ZsiS3kUS/hq9liR141sz8B83YEmnSsGlNapa/H2CoWq476qDvG5fwupkJIBDhsf2Q/vL7zz/+9uWHeP3+x7evf//y37/89MfPP6R/+yHGX379+cu3X/6Y//RD+vcf0l/++vXbl799+/rPX3/6899/+3FJrn/6z6//tX7hf/7E5Xy76kLF63///C/XreT//w//8af8P3759VU+3Nql8vW9fBq3PkS+JpDvtxJE/l9/cC9fb62LfCf5fOv6voPk422UD/LhdgWQD7cwRD7A+8Zxy13k17+9lW/6/OGW6PfrLUWRz7C+seh+CLdSQH7un0vkK+yHmG5Rv08bIB9vVb//oOeZ/7t9kI+30FA+VpHP9D2vW44i/68NuJUP4748d/n5AWD/hH4LVeQb7IdQdX/mW4L9HMp9eZ7yHb5/yLf8cX3LLcP3DPP1PsrX2wXfM8T7/37KV3r+S9+33QJ9n+t2dZGn3x+3+FG83y7Ybv2u/J7iGb7mPLxNxAc8fLvFj+86NxM8zFSFQcRpa9ZbzB9P1nVfu618ufWg8qTKy62IZpiqE1RPMc0Q8CiWWwgq3+Frzo0umjbev8Ab+ZpUvsL3nAdPfj/dz/Ib+WDyeDXehqzX1L2w2ZLe1FOervZ0y0XlB/5+lO9f7rrxjfzVVL7TVaSafOq6SFfLrSeVp/V6rOZDfqoS2P/xVprKF1Dl8a4oX+Tx6rL90+//5Z38pfIdn0fPy7jrl73qvBtGL/KVVL+qn3lX0v4M9934Il9I9ev3WaYbXaW6P9cvoPxVVL7BebxUn6wvDPvzUv25dhTKN/v9Afthyovlk+5397vnuVS+4+93+T7TNoDved3vthd52v/XXds85AtepkH1yTI1cD+HovJoaqgpsEwN/H21DNv9RLyRl/tlWgOk34Ja/lO+kWl712YPeT7vU59klW+on8vH9UoXmramn6d8xftFLLflW5Grqc8/5Qt8n3QrUeVpfyb1RKZvSK7XvH+ryqMrq8ZhSndf7J09UFWe7CXz9Kc82YdZ98/0ncmVynq/THnSbzv58Sn5ckssf6k8UQPZ9tu0N/h7mjy5vvnuqDzk212DvZMfKp9xvWJTeaI2sp2Xfv8vb+RzUHly3fNdez/kx+F7in2V2N7I5sk+fL138kPlyX7Ld8f7RZ68tXy3Fh7ybG9k1Q+ZqZOs93uOSEXl++q8yPP6ij0w5en+8udJeD9O+aLyFZ9Hv+dJ/4j9OeXp/srqH+WTPnF58o98v9X7DfKd8g2pnKz+y5Tn/any/bD/VX4c1tfl+X4R+XId7i+VD+ivTX1i8vw84v+WiFRXVr6iHP39pPJkbyf1f0u+W1zfZ2+Ucrdgv8/+mfID+QGxh0tl6t/et91v8Hf+flR5sg+jnpfS7yvyzh8vKt/Rfhb/sYz7L7yRvz7K13kfwXkMag9P+UJUst53le3hoPfvlCd+wPyXGjFUMG83+f2E/J7571O+4vdJH/d/fTBm3y3f0F9T+XL/L98pX++xj++WJ37P5RvuZ5fvaA8Etd+mPIYWNDJVB1P/t/rx99uF9l5Qe6CFw/ccQeUxdHS3Fh7yzLcYX9fSQZ8IP9MyhwbVf2kPC/AdH/vRPm/MhyS1V1tFPj9r5GXK032U78GHh3zD0GBWfqD1A98u/u+UH7DfivpHbaC9Or+exGou3M9Fv2cP+Pzlzs495COGvqry/1Oe4hf1bp0+5DleMG/nj+vbM75v1fPbC/ov9W69P+TnG8H3qcqfTHnib6ved72hP+jyHflPlx8Yqt/Jc3xN5MeF94uH7y48j5b5MMIhPCh8/mB7oN3Z+4d8RH6yaabBlKf7pWnsdLD93DSTZLD90O+79yGfkU/r6m9OeYpHDI10T3naz0PPyygcqr+UMBoFCYIVjzUARQxC0GSD8UgXeQeQMzwONo2R0KMiKTUB4rWNxlafXasTkOkrpTsr8AKgOE+wwO4E4Ge1HJrR73fVO0CPCkgEqMpFTABx3cHShgYHD8LQ22kCyDt85oE9AIPDqcHOM/ODywG1v0AKzxnCwRZsLBqCmgA0Gds9WesFQDpphXiaAegvPL7JK4CswEvNognAsENQO/kEiEp8r0cioiFpZPXwlZJR32sdKDRTTGvwSqem5MTaSwTo91yF191KbM91f+LX80Dmb1R+ZQLIH1qpm6Y10IAvdsMdGPxmV2hHVZm7+nQTQFujWHrWApCRbVH9BaCspagJeEtV0iMlU2QHQNbA+AlQ7co6AJom4Z0A3SyBA2B88h0W95Q/BYiffIea7ADxHVctwHACmMd2AjS7gQ7v0NWnOgGGpjceAM2yFE6AuDMdKGfR4q4nQFFi+QSYJqEfUQJ0TV08AYb6/oev1C8zdA+AoNGww16azv4nAWkHIH8m393lVwAls24XDpTxdOCzbw0C7C6UAhfKdOE3agacrN41S3ICyBLoY/OViDZYXrydOOJJppvt9zS5AxOg1gxnIU9H+zKXhiyBCdCVbmiGDiuDWF4WLNz0zXWlG7+00ZfjoRb2AKs8WL4o/YVs2rtigGP5//ZI5ItOgIR0pgNO2fXzfyvHUjg9vSgJODjIt37PWA2KEq8nrgooBKiahzcyxvkWxyBbI6GROOqGKYpwpidA91K8v9U7gC5cxFjf8CuLyd65+1UJBDR013HJCiCHYzSNRy/+kDZf0wDeBOBKN40ITQBlBIymunVRpgyQGM8EECE1rFxmXQC0+bpeWZ3vh+VeJAVQmGc5YR9XunOc5OnmvQAoMWw5kvIXKhon6y90BeDCdVX30zbAheuaPLSCB7S9/bNydvBauKoAspdG1/PQOX9o7SV5pIQJROtWjgogRvfJGz4AHPJZgKYAyjndAAIWWWwBuHD+DheGEbYAiqM5YJrvlDi1BVDmxQbQkUncABoyWBtAxWSTBRgKoMK2DaAgZ7wBZOT5tgDUSw5IaKxvABFT6raA01/oCsB36GrNtIARjqVmLgWgkdjVhGsXxsmWxxMVQET50q2SmcOR8aW9iwJQVQ7VfIvpIONkKKNbO7KhT3b1ATicuKHqvnI51yJ8pVK1IomwAEEB6JY5oHBE0QGHS3EHoJqxDSBhUvwWcNgaCogn80cBXIexBaDmcwBH1reAz/2FMtgMtc1XOGDh23sCDptPiMHSWZHtAKjI/JE4kLoFUEXS5itVTJnaAj75FworY1/pcvpKCshszewAlBexAaSTMnYAugMOiJ99B66N3AACJvtsAZ9cBy4/2wIon84BKwH+U3tpAtAydkDHFKQtAP1pBzT2UIZGwHM7/QXxRXPld+hKtWTOaxzdCncKu8ddM6VzxlwHZx0mAB+paa5WTswvNSWZMxcPLn7JqonwHaqmwUwAWpVG9j9D3O8A4k+nwY9UrAKSg/ITIClziSPgEyA15xOAFLDxrRNASe4TINkUqTG5WZS7nwBkdLPmzaSDa5l1pScAN59VzkwA+tNZSwdWQsaBijcAWpVJHb/ExV3Dul9MADInSU9cSliOOrw+mfMRFwcdFIArHW23Rj5AlkKSInNk0WpSI9+iUR2/FNgiC7ZwXBW5AVx8A+0AeAMFLZyOg30gy1SLnPszglLAkfNmhtVCrEQx/krCrB+aDayY4lDAKQgp7Sq4ncp4dOt5AaBVaQVEsbCH4h1ACnYYGVYis4oSDo9kPTRQCewAVES6AcTT5nMABr8cEDDVcwuIn/us3HRvC0Ci3ABhMI29AyAR4gDuxbUFUJ7xFkD5fBtAw2yKBagKwMhr0JL/ZyLx9wPwynJAOWlvqSoKXHWyeWkuo9oC4uGRBMCF6lsABoN9pbnUculW+QuBbb5wTyN4ARz0ktxA4cCRWTle4PLtES1PgLn+aLnV7MVFS43gKzTqBdc5RyBqPiLnOu1+//A8Wu/HFGK0ejxOHYma0X/wM4Kaq/V0Fcp6PQrK9vKX1ltWvNf60CyQgvlBvet6MQvQm9ovBcmYXjXww500e9b6dm6Ps4LP2tmTjM6VUCg8CV43PVh/ImSr+qVGbcL7rw1VEAnV7orZireDz9+MhOFYerPkXeYwWzXzFNvvrLRXsX/xfDXrLxOx/LAl70RM57F5f0Yu9/N+hcjAtqCcFncKbkHXlzsRt0vPFycmPEOWT3nis6qFhgMaT7VqVJXL1av1M+VO0ysQl0WejOoa1Yi40AOs9v0vrrQYqh8u5BJKV5ODO4mXph4pt2MqVTOGLiyHX4EcfR7SVyV7J3Han6t7S1R50D8l+vpSTLFY/80LLbgSNI3sIH9pVdaFOTB5qP12kLfU7YN8U311kM9qLx3lo64vtsOyfj1MK3k51oX6P5s+v/B+XPL6PNgOy/oHXajf1vPr81C5dLb+xRc6PTlrIdZ1Km/Lqh8O8tWen9er2e/z/rFJBkQ+PWNIL9+ff9/ksX3H5nmwIHHzvthebPM9D+fF1utwHm0/HORtvxGhv9vPxGrtzgu2K9mdx8Pv6/OQvbfTJ9jecKOvKFK104fYTnCjb0/n91PyVkt9kN/cLyhvgWd+33U/6n5A+Y19dZAfpk+o3b31R2P9PO0Tsx9IX5XNZBTan8u+0u9JKR7F+pscxg00rd7n81i69gfk+3eVvOrvkz7xile231bBq64v2Z91o3/Ifp7+hZ0vCj/WqtF1nqxTu3YeuLBYvFqNJZeftEvTWtmfataPjNs/NguGsj/YovuDlHzQrGAtYPVMyxv/mvkE82c78xVyX0S0f1ZCuvT7Rn6yNfV/I+7/1i3iyIXJQ+eF8GSdfllqBurbbpXS6cSnReWvsFQ1aX95zqx9VqO88HXEfxa1lzLuz279uTjdv1vtVUH7odt9eqg/uKwfKGdwBJWvp2CvnN9Dlov1D60cYrR+po3DSElTSxvnYiSrC+DyvaT8ZOcctI088c/DJnV15K+GN2Li1FuzZ7gpzOomZvOKMCvJB7bwDbwiMBbSOoRgooXlMOocdQ+tON4h38aGEGGk0AGHWKTVjp+inQ44xFN3AIzYRvXcTjHhHQCjztGm3B3i2jsARs79pQ+xeV+4Q/TfAYf8gh3gcB4cgDkSDjhkYewAqIQNcMok2QEwV8UBh2yYHQDzbRxwyOjZAT75DoespB0Aa3Bse58yqxxwyN2yE7eyww6bT+xN7kfqAfEVseZ10Ahi46xVC9GvLD1eOM2hO1zq1sgjclPnZfV8airQsDFpaywQL5ymGx/yMaMFog8Zn55IG05KQBPLebTXiJZTysHZZfxYqi6W+nm68aFFRdKWXokniY7dPCE8oj6gJrEFmnW3psyKzELeKZ9atuiMo8JV0Z5+X9jKLTYFh6d6rBIC2XwVx6CtDixNAXjH2aDNdCiTK2pJr5oDrv3QUVCHnhbVfOHOL23NqlNH9mL1eJF3GNyHwNofp0PJZVM+9zD/x/uj5MAp080Kj8KpGYlcu/lQV9f1xK06okNltw3FOZTvCouRD12Nh1UqlVO9r/BC+dBVaVil0rEKVCYzPhtZvgMI9XquelPAsa7OAYfKPQUcawMdcKg+1Pkyx/pGBxwqKBVwrNF0wKEKVAHHOlMHHCpZFXCslXXAoRrX5/x88h2OFcXCjJ1rlh1w2ksCONZdO+BwpsUiO9eOOwDbfF+XJtAcCuD3iEONvT7UsYpfv9OxT4BujmMnAgGcex044NBNQQHHfg0OOHSEUMCx54QCjl0tHHDom6GAY2cOB3zypY/dRRRQMYK8AFUBhw4pkuJQD6TXUMt1dXnhA6SdavpJWSrL30+XlhiidRzL/qsCTm0wJDDAmTvDMqNXx6BDNzZpkxSOJfNVAQdDVILz575Kkk106ty0A6Bj5oBD9ykHHPpb7QBI5zjgECNzwKEL2A6AhUEOOPRVcsChV5oDDt3YdoDPbb5TR7kdAHvWdWtcGbh63JJPTn33rEfX6uzHX0nHUcXTO0i+Xz+Um3drvpl4e3tbycws2dC+3auHIwM0Znn0RnXo1SF0ZO2fezlpb2nDfRh7ta6sqAAs1BqauN6PncykT8DqOHpoCyPvcGgwbdNgeudWsV1Nh965esymL/VD749uK32o4u9Kxq+MBD4P0QBoVVoD0QnAFtbWfHMciOxmfYp5ZvSipKSLcOSVbtb4nsueRrMxDfHUdlgHQaRTT1MdRXToy1ptjM/Bo7ZUqGcLlHcAnSxUOPZalbhbxDP/BX3pwg0eio13OzRtKTabovLmM6p8HNoO+xysyiSwjfBea0/vkG3mXOPPakmx40CVJxtxcCzL9UkqSBhZntnSVFzbXQyAt+hlSoC7dXZzy54OwjuAj/HpXJyrw/O4+no7OYJYh+1sCrKMt9MvELCbr4HvsJvgQedhOyOErMrtFBIE7Oac0MJtJ6kgYDerBet0d9NgELBdOALsJtogYDczBwG7qTw423U394c+63ayEAJ2s4sQsJuORHtpO38JAbsJTwjYzZDCd9hNqSLAdg4WAnaTthCwm+WFgN20MATs5pEhIGmi5GEdiuW1HBTZmtr2Kc1XLFn4oO6zTV0YPAgi79aBPJRczPYep4JHna460JrJ1gFkcMwvX2Yvcb5d6namB/pxz16ELwAiaFMxW4NHfiQbKz4G3qIpbYZDUle8ZE3unmGYPSBoDPwl0rNHXIo4/IloYfYnO78H9M2UTsrFjM3UxkBzJlr3zcGJXtEKPge3mV8FGgYgJmRVyBiAnNFnifbrgYDd90xofT1yNJ+4bV6ayiRWYrFrMnqkYn2POtKhwbpvPtNE9oCkZOXgLMPwqKx5dYJ47LMO3eS4TghKVi5Hjj5r2PwFIjaeqfwvzij5NMH6E41DQYnZrZVpu/uvvXr4OJ9cWQ0OJnS71TPqpG6junnATrNdxOxvMzqNx375vPqEu9Q5mYjfs9ptGzHRu5ojE9j4tGuHW7BVm5LMBZTV5t9dyBuY/BrGhd/f5Wl9XZ4HKbp8w2QfG849XXyy8Mx/OQy9KpuZVxSRsfuyZ7ycrB9NT6jXza3tka1yvft65AJxzYfsAbN3s6YS9gvzDbIS9G0gbWs9oRvPv7b+C4tqIMNRv39rmM1gGdqLmYD9kJTtbBWt96gJrM8OYm/k5b5oGQMeVmu2wtt0per6toT732jIFdGH7xlU/7eAzx/UWlwdxOC8X3p+G0eFrZ9d5dSqS+mNyqUW5pxVTrJ2+Yb3kctXtLF28nS+XL7g/eLyGT2/nTzF4y4NgFfut35pRLFyJeSlOTA1ohl9KR9QA/pL1p/ryU69kRePr15YymCddCs7rcH6Yw5sYBZ0xGNhlsgqvgrr56gcUWF7wPoVTnmqKIvK1JWK3IcVDZVy0P9iP095vo98zg/Z28neNzFRov3ySsL9lvQ+KhHLQ5O6zoXrHrM6kYUbeLg8Nxg2+cz27U4eG3SZPI8id/mG+8fmWa+qBf4+Il/RnnR5rnSykRu5oP+S1N7OPKIjaYrIoTQlaX+0zIXqtj8zZ+4nTZpcI3dgfS2UPOWJskhKQEx5sgfMvs2c62H9xaY82W8uz9kq/v15XLS/74Xn3fqfpoH8gPVHTlzJmqwOr2MCnUVFUj/sf+lPlDhTIGkAIjVsaJqsUrFhQzjr35HqYf8I1Z8qNkxKel+ngvZ8Uvs/nfSJymcM0CTlZ9LpPo1R5cn+TJqRk7gEwPqhJJ75laz/dcL1jVYbGzFzMWpVXIrIjUelZFPgmIadr4D2udW6J05St3L9dHFBj+rPKU/6wYINke2HoPxhHOivBU15iax/Lk0OjP3kD1p3Avo+l3UC4G4GxocvxhXW97L+6Vxucmm/pMj1LJee38j6wULKMaO/c1kDioQhaCsGe2r4d/IyYCliCPCyDhoRG8Rcyj/HiOHnS/X/6mOCz6/7P2B++aX+1/KgmU8YKs/8jJ4XbugbNDwfOLRt06fCwL5HQedVhH7gu6RfW2B7Iyi/EQ5BOeW7AtsbQe290LA8Jqr/G9gfiXq/hxNfqkNzCurPqPxzYP7K7rvABXjJehdl1FfJmoVl3J9mT4Z04KurydN5N/s8RNz/WXOppjw2PLb1Cgd/XKZOBm7AmdVfWCFejL+I/RCYTyvKn4QLv2e1+CkWGnq4Eq2T5t34cJqHBb8wMagrF8uqZBj1j5GvFUoX6hMtybnwNhqImKgQNYu1YOR0Hoyu8lSBMBWHLC0z28G6n2RkHkIzV5OZ3m4tljiyM5Tai5x341c13nTRJjny7OF1VWhrW0wcMlcnoOUTbTRHQEsvWit9rvaLVpwR+PtYFQ4zn9Hqs65Twpq1KqdWnWkzioQ0c7LM3guZ+VTVFWRN+2wm9JRH5nloKIJbFuTgrcGpKDBnb+VOlu2u9f5B3kadkGe35G20Aj9/0vU6jErI9j15lIRknB2+/0aezuOSt/1wGCWh+43uoyWvv4+ZDFmpJWY+c9bszgsj+2u/2aglHt1wkJ//8NuPf/z857/89Zd//OP3P759/fuX1///16/fvvzt29d//vrT4z/9/vOPv32Z//Z/);lineShape=1;" vertex="1" parent="1">
                    <mxGeometry x="3.476898216134032" y="9.332485434161981" width="215.8703634623875" height="622.0109267734717" as="geometry"/>
                </mxCell>
                <mxCell id="59" value="" style="shape=stencil(lZ3ZklxHckS/Bq9luS/PI+k/aEZwSBuKoIEcSfP3k2nQrep2v32SeCOa4XW3zFg9Ij/lv/3x8w+/f/6Uwh9/fv3yj8//+8uPf/78Kf/Hp5R++e3nz19/+XP916f8n5/y33768vXz379++edvP3779+8/bMn9X//95X/2L/zfN9xsj9o2KoV/fftLqo/47S//9Q3w6y+/vQfEaIAOgPqoQQEhIiCk94DyGAEA5ZG7AvIEQH608h6QH4MA6TGSAnICQHzM/B6QHp0eOj6CAQJdITyiAOIj548BYz5SfQ8IjzYAMB4lKiDCM4z+aO+/Q5z40KM95lBALgj4/+/6BkBvadRr5TwBgx/6ufrfADIBii7vBQgVAPnR5Rn6o9MzpMc0AN5S0i26AAE20IiPKN+hPRrdUri2/BtAAkCfjyhvqV5b6h7wfIlvAAX0Ul9rqSsggF7qVbdoLLg0ennMqoBEgGzLe/2FHtq/9NJU8OEWQN9SfiR66KhaI6brNdwDgu2H9KigKtu0tZQeGZRAG484FRDgS7dutxSvLXUPaLZa46PAh2v1kaICIuzpthaCLO/w6HSFfAMo8B1aeqSsAFIzLV4G6gLMRyP5dX2VT/BS63zU9zZ0PCao7rr07hT5Bg9cu5rcpYdhK1SzJf3aTB/Jy7JbWph+f6mfKvKFnrc8ehP5RL9fdGc+Fdq9fFa70x6d7me5MF3kK2zLJZ9UnpRdjdfyesnT+lzy4uUtg0DrIVxa5CVPqrHY+qy4fsq4jPAlX64FdS+/1ucQebIepV3b4yWfQcuVqtamPAKs51J0/efrBj+SD0XkG/1+Vq2bUYeWdHlyL3nymEu8luNLPtL9hOvzv+TJ3OdpPj/qhzwuD+iNPNx/7pf+fskPWP+5XUbujTysz7z8TAlyHp2eN+l6SJdCupdf9qJ+h/wyD+JZL3l43q2+9f2T17vUpUaB1we8l6/X53nJV5a33ycDvLafhk+4ntdyrPr+KUzey1fvh6Lk/Xjv5SOut/1z4mahvVj/u6l8o/uPjyRe2bVg7+WD2vflk7G8BPkR9ecKDNW9R/u15MW+P4Oie/lh8QbqnyVf3r/P8Jh0/11/P6B9XPJliDztxxWwTb0fsl9LXvyNgCHiir5mE/lK91M1tA/XAr+XL9freCMP+nPHano/BfT/jrz0fZK9W/JB7x/lk9q7gP7YikCG3g/FYUs+2/ei+3kGLH9xvYVrO71Zz5RC8+2OaUaNRiJq56nOTMTFv2y7ZLYegRIqj6Smq8DS7G6JBnzZroYicypFbyZzXPeY75fBijPg15veTLnywx+IS5DAqd2mn4lzOlXXTMVcRb0CylcEQhbiee03ARQFjFc4/Caeo3jrShi8xDE8UG9tYMJhKT8NvkkZF03MTkzkFlVNk0MtjcyWbqA1ZpHukifXztNobJrztd3e5ofIFX80S3FRqGiR95KnUCurZ71sBaUOsmWfMoaiZnliQVPiWUbOlCa1tEueQsVknmNjV9k8WU5XJ/MEO4cGljobmCT19Pny9fB9BlkP89Ki96bzqjU97UO47vAj+azyFCpGLTBsV5lcU7X86y8U6j5301M+seulmZUd2pOro+tnyVMoapmnpWHIrESz/hVTDfGmRDrJldX1fEjNRfXct0uA9y+RytL+5I/ES9s85Sdm5KNmMnI4vB+XJ33l8qyf7f7zab2pfObQz+SfubG/LE+htz9vxdTHkpfMVkN9a5mbzKnsqJ57HliLi5c/+pSfh/Uvrk+JmLqMl/P9lE9XrHYrH9R+lYz2Lqi+LcwnCOo/lHZ5LB/Iiz4sHUO/cBXFn/IDA4Sg3lsNh/sRP7hG9Dcsk1o5NRc0RqgZ17/LF2RbPBMFT3kuDQTVt5U9+aCZmNpxfwUNFCqXroLu910rw/cpmY8W0H4F3e+71ofrTSqBLaH/Y5WWljFWd/mC/tudPK9/la8Y7bh8O71/qaR1TDa4/EDWistPtEcmv4vw3/N9d5Wf36eEplxwD9fqeiNPqUurJHf234L6P70cvpfok14P71P0bW+H5x1V5dkfFupWX/YX/XmJR/p4VJQXfdLnwZ8Xf3jw+rHM4pKnUn5SLs+I6G8kXZ8jXcyyvxYPDi7tJf2+m2JFpRDNz41yedQfxNfCaNkkMVgP+SpkvJHH0uFVyHvKs/0qWjncxDsqJet+HwP3l2WLxkRmYVF/bDJPsGrScMkPojpcu+MpHzG+rhrPznTIeQqJaib0J5vmHyYneJ/R31M+Xzvogwyv5MfmM4P0UQK5qzyVBoxaNzOWksfN71N8N+3+y5XR+kBeKi2T9+MuPUQFYEAV7AtU9FDik0r7BkAprAWYdoVGMXZSI7YAGDRnjcJmQ4JWzGrGNtebAEX11jzYvacafAI6li4WoGcFUNF3Jw6jAg5VSkmML8CkL93tCkzfXQCJJhfgUCjW7TM4/TK10rABlG8NWlZZAAogPMKdbBG2S2FXIBW8bXhWAO2HbTSbAeiWinrJk6OyXZryW2KAao0DoN09AwGslncCjKu89tcB/ftuaWpwfADkcLNayRvMUdm4G0BMrKTMswWgPZ2zJqDmxLJkLnZLkz28auTaiSn83NRHXQCy6Xmo07YAtKfL8rmKAsiLKcm0xsQwpGSzcRMpVpvCGL4L0M1kHQBTU28HQI1auzsBsiYnT4Bihv0AaFo+OgG6MbUPgGFGkQEtmK9xAFiJ5AQwNvIJUO6WNwHqVfz/q4CmaccToJvfegCMGyWAgKmVsAOgWyr3BIhmsibmrntSGtVBkXXjNW7dSi0q2R56YLqpF82fTu7x6tUClIEBrrcKzY4Z7N5ML/WrqHMPMBLQ9r3ploYFoQ1dae/A2gEHPcPUsvMC0NIYQeuSk9lAI5oFKuhVjmiudMGAY1h/1GRW/AKoIstoFEdWssBk3voCKBeH2SOjmJOYkEk5jBm5AERVGtXWEhMAhhv2yBmHZiYr8oezbomdIwIlMNwoMp9ydHuGgFWOYQT2MTHtswCSh1oAqsN5h+76C7aSTmVWrGsSU2s9oqTeFoBSddMixfXeKFKcUYsF61NScm8vNQNgtujZf/gmvUp0gGl8qrVDKN81jUA2mBAwzQKtXU4GZRZNIizFQ+z6ad7MSHxLVUlAS3lS0n02e0tMIF+AZgBcS96hN/nDdSuEDW7T79qz05nptZNDUhrqyKbduZ6kAOI2zGHP0JDcM4dVz9qVuPgI4OUwSp9O63TrTzrpR4DRFIBbdGpI09mKbpfwvW7tnFKfUzkshxrmdmvlS0eM2F/B8BMQ0NGdU33vxup+A4SAPJjkPq/EyhPAgwBuAEyJnpaKb9w1Oad1fRZ0f+bU1doycu/ntD5XbozaX1oAXF7aAYzwXybWq/dqFQLJQALqnOok7hie35IS5ZlCO4f6S/UwlWVo0bcW9DWmJRFqQlbsBshrjSeA5CprQJ7ZBmQF4MwU60EvEytxGyDUrnH5aB8C3t/S5oKxuheTVRrWsuZQNbMAp4cWQGXnZKiDVQo7J2aBdnPx4Qrv3dCSWfM5gLtrN6ApAE2WAyJmTm4AgZ2TOwDRHB2QuQ/jBjBOG0hSXjvtzGtJr8DUg5sr9JOaUUA7bSAFVIynbwHoJA6dJJAL8gVfxbQ3ACJsTusNzRmbZ1/1vTcAKmi/KohPQGJPYGhdNMfTl5aJJpsFzjtOMuuZA/DpfXUTk2oLIAYlcRFyGpMidWRG7wilKYCoSgsgpaldNKSl0eyhD8u76XdI3A20B7o1BRxuSZz1XYv9XgD63ne3hBvo7qFRzTTr5s/cvmpMhA3gOXk6lC7jQJfZbIBEYUe3Wd9I4cXXtK9vv1Z+Bu1kKWyy7gCoZppqvsTcnw2wZh8MLW1kXOIk8wbYd0Cza02w5yske0uHZ4h2BTSKzdTM8TvcbNHvvcJpbuT3rtb0vfshWd/YYcfpyJPjntaJiEetUUyRHfTSdwK6raWK1YHZ7QoNW42nTXVcgINRlMz67n1m50RKU7uhjQH6pSdysLa/1BWAFEabEJAD9vDtWFScxMhm1+LpnNgoDvUEMo/ue5VN33qVfEs6QopnTnme7+QZO+Dge98BDt69kJHP8YMCjhGKAw6esQKOUZYDDnGcAo6RorbQHWNRWRrnaFcBx3haAceI3QGHnMD83qyDbKBzXsMBh8yJDnljnrHn+c7ZHwcc8kvTM1iHDydXGFjbvfkOkz2BqazHBUCz6+nTgAXtDZBsaGQ1M7UOVLmKvwGS3Dx4M1MN+87oMkAHJLaTbhXPuB6+9FQrWgenKabG03UiN/Sm/hBOdSDpnWmRVeW0MZiZ9/TU5d0KZ9anLu/G7WlzqjJuDStNMQS1irtjkV+TKKY2kC20Ae9XXzvUaqfVCLmJdU6bj8oD3bzU1JnW8uK/PgH5tOW00TGz0zeVmtPLaQfJqJZeufplyrVX7C3cfuj71dd5bqt7ugtATJs5tL7Wmdu23fumAIzLjAbcB9KLdt7OOiTRBHUNRjfbjT5cM0pI4C9toeKI/KWr8WB4Ksa0triR+NSDan2DB9VXNFO+GyuZaaPPUFgvZU2SjcrBaFJi5TjEA0kTG4O7oGa0udadXeOg+n50djaCLQ3u/x1mszYvjAHKR2LtPSy23NckQp8F1JMDiAVQGnDAEGXYnp7clTy6cT0jNsjthWB9pVTGH87U5zM61trUt5TQsq/tInykBcDjKoqSEmfCxMbI1hCUsRttGHtun55CD52U1jI5qza8v6fwLUWj0BZkbQ2bSDMLBhBLuSvRuPLIR5s2Oyv2KG0DJWupoarsVvKbja9gebtdrSKGeLPum45zV3qzPc2JjT2nwXr2iInZy017AjVmvRy2NwB8rVmN4vYz6QrJ+t2YBtxtvNecpyM3hLDxxuG/RXifyBFhrShHhHW7HBHWUHNEGMv1iLC2oCPCOo+OCGtuOiKsf+qE8BatI8II70eEma8jwnrZjghrlzsirCPvhPCmvyPCAoojwjocjoi77kiyMbf9l3jixF2HJxnWbB0Lr7D+HtBu+s3wUIJq3fMTCwC5mK2fmELavbyu0OmhzeE/ddq6czCR45dt8vU2SjRvxnuqJ9ZVbrq2jwDtCz8AvPP8APDe9gPAu+ePAO3PPwB8AsDEEPtmxsABYJOIJmeq95wEfwZaGkFJsq/SzEcA97nIm9jTJKzdnvI70ehuByctetf2QHc8dush5fETsWlSaw7OkBq9Zyeh6C1VC1o4iN8jk23QCFUBY9Hk4os8dg/INsaoY9QfXVUe5s4m00uNB8nGm5EyeOhFNDVTeS0F+w6VJ8QEm0FT8ZytqenOWbhgYPFBwQTssAEDzO3pmjKbBYcJdmuyLUh9sGM+djROB81ZI/LpfIFo8hQD2kz/yecqVVPBfE6PDxeLfK6Y6dN4GF6vnd0Bo+qirL6disPhbjpcb/C5TdbnxwOPbHj9YLpD1l6X0XB/JetsrHyuknURltMwQWu1JK85aSi2WzPx90WvDz53yoazj9PwdH1ePgjF+2kD9nyZN7ubLHmYshSYxmH4r7h1ndebDfPdDZM8bFQqZA0byqyjuVesgtjJtZ3JmmZfej4MF9YKHydkg9qXzmfRBBs2yvoqaGRwHCYr8sdhtSp/Goar8qdhu1rqPg3zVfnTsGC9n9MwYpVnCqj56y1jsGiz3BpXuYMmXFpE1zhoK2Ljg2ct6VAnti4G9QcqjySwWY6V/eignn1t6FFasL6HifNwZOlaPA0rV/mMlWQb1ryHrfOwbHneiD666c89LB5/X/yTMvDk4qAlrdKRsB+0yLYJa/g+xT6WgmXwoC3OJR+Gp4u/dKAZBuW1lIiDF4KxdOfBPjrXEyMkO7b1EHdal1VDSmJU+3U8rELlT4dhuDwftqHyp8M8VP50WIjKnw4jEf/8eNiJy/MwbuXCnw5rkfvf3HmU19/ngS5R/Z90OoxE+0K4EBqtLaRypkbtxY6w+LATaWxhDku0Zp7M82BV/+/DAXE9a3cRM02jdRgezjG1FpXDuY/WRBYO+1GawyM3YUbVz/FZevwonkoqj1kvO4a187BcO9yrYT7H5t1FTnklZcfFehp2L4W/gvkKY1fEgtWKpFnEmPkcXzs295lW/CA/oAW/hPFm1v0YE9bVsvozkecYZS868zncOgwnBmRNZxsbhuqkqHqe6G3YIbW8WYrWgAeSsKyc29HUFQv10RIZd6mhI1z1zTTct3b85uksUD3jB70AG0xeUek0a0hAG2odpdz52HSLZ8xAdb0ZDjC9ZR39u65EET72fFxP9txOaP2NRsiHhg9NLkZmgGt1mhmExisI7CkHbVA9nOBsqbPABSBzRQJP148aqvAxrDH5id5o+W9OuCY6/d0J2njows0J3Qf5oe8T5aua5qP8tPun92l80oCZzn3KaRJ59Hy7nxiOxzIa5ZYtmxd+D5nm6b+PJ57bJK/DCebWSBP42Fk7dypgJJ2CMsG4pXG74uI68jG1Ufc7Z2qTMVd4Qt12HVV5ouebXTeTp5ayjqaKaCm28yKuIM5dS1ZCj1zJqVqq4Ex56poqTxh5Jxu5z8dQpqncjcOx0XZO50E+qf45yBebXoP+Wm66HhJm7nO3ASUY+WWbhZaYuWXzEBOfR2DnXCac7lOssyMhPaLYOdMJ13MxpnxGe7GbiSU1h95Mqe7oUSa4GN+T/cjSXZ4GOC15bfzl+x+Wej0d7qCpYCQu1aCeLfcS1ajrv6K9W/LiCvMRTzWp2185ILLQmzMNNSsvmQ+EqkVL+Q331y58JJEnJkKt1m954iNLKadjJqN2tRcdJ51UO6mpYyagDustQ3tRbeDrwBiz2TmXA++nRTvXAHMHzTsTsPLWspHk0P42889XREMGY/c9G4CSJc0GI8XIcXhXlbtPbuMjOCRmixE3cZs3ANJC3bn/CRNou34/FXA4gkNTmAkH8uweF3G0DimCcgPAwyXMNEWugvaqZa/II+G6OXMLQOdS9WFviU+j6DahIbI9GBb/x4ql0xF1w8WGowRG0uJI5OHhw7qZYuOmyaw5g03O5YZDbQnpuIFGtbfU+ZaqJXl45u6wOXiRD6cb3QIhPlBs2CDJF6v6HjDUFMbJfZzTfM3DQB7jQaTDuE0vzPGZHdOYcImPDZ/mvxwc5mm9qOkwkKdYsYpd1FlVCbyC1I8AUj5IBZXxHmtnVyC+0WzqtSVWZK9TO98CePSAxkWFB1RZwjkxB3Nan9CrVvARQLPIBRuLZtOyzMH5vwXgdLS7WzrM8tOHrqdZfvpaK49T8w/HtfCbpXEYn+CLrx4ngB4A6z9+/+HPn7/946dffv31jz+/fvnH57f//6cvXz///euXf/724/NPf/z8w++f17/+DQ==);lineShape=1;" vertex="1" parent="1">
                    <mxGeometry x="17.770136923618566" y="366.8177896934967" width="515.7067884108603" height="312.89649604465694" as="geometry"/>
                </mxCell>
                <mxCell id="63" value="Os cÃ­rculos representam que ambos os documentos estaÃ£o dentro de uma mema coleÃ§Ã£o" style="shape=note;whiteSpace=wrap;html=1;backgroundOutline=1;fontColor=#000000;darkOpacity=0.05;fillColor=#FFF9B2;strokeColor=none;fillStyle=solid;direction=west;gradientDirection=north;gradientColor=#FFF2A1;shadow=1;size=20;pointerEvents=1;" vertex="1" parent="1">
                    <mxGeometry x="840" y="222.43" width="140" height="160" as="geometry"/>
                </mxCell>
            </root>
        </mxGraphModel>
    </diagram>
</mxfile>